HIERARCHY
ROOT Hips
{
	OFFSET 0.00000 0.00000 0.00000
	CHANNELS 6 Xposition Yposition Zposition Zrotation Yrotation Xrotation 
	JOINT LHipJoint
	{
		OFFSET 0 0 0
		CHANNELS 3 Zrotation Yrotation Xrotation
		JOINT LeftUpLeg
		{
			OFFSET 1.38280 -1.96574 0.54427
			CHANNELS 3 Zrotation Yrotation Xrotation
			JOINT LeftLeg
			{
				OFFSET 2.72096 -7.47578 0.00000
				CHANNELS 3 Zrotation Yrotation Xrotation
				JOINT LeftFoot
				{
					OFFSET 2.73041 -7.50176 0.00000
					CHANNELS 3 Zrotation Yrotation Xrotation
					JOINT LeftToeBase
					{
						OFFSET 0.16150 -0.44371 2.18031
						CHANNELS 3 Zrotation Yrotation Xrotation
						End Site
						{
							OFFSET 0.00000 -0.00000 1.12127
						}
					}
				}
			}
		}
	}
	JOINT RHipJoint
	{
		OFFSET 0 0 0
		CHANNELS 3 Zrotation Yrotation Xrotation
		JOINT RightUpLeg
		{
			OFFSET -1.57224 -1.96575 0.54427
			CHANNELS 3 Zrotation Yrotation Xrotation
			JOINT RightLeg
			{
				OFFSET -2.95935 -8.13076 0.00000
				CHANNELS 3 Zrotation Yrotation Xrotation
				JOINT RightFoot
				{
					OFFSET -2.52345 -6.93311 0.00000
					CHANNELS 3 Zrotation Yrotation Xrotation
					JOINT RightToeBase
					{
						OFFSET -0.04475 -0.10171 1.86688
						CHANNELS 3 Zrotation Yrotation Xrotation
						End Site
						{
							OFFSET -0.00000 -0.00000 0.95157
						}
					}
				}
			}
		}
	}
	JOINT LowerBack
	{
		OFFSET 0 0 0
		CHANNELS 3 Zrotation Yrotation Xrotation
		JOINT Spine
		{
			OFFSET 0.00669 2.07367 0.09104
			CHANNELS 3 Zrotation Yrotation Xrotation
			JOINT Spine1
			{
				OFFSET -0.00664 2.06198 -0.04732
				CHANNELS 3 Zrotation Yrotation Xrotation
				JOINT Neck
				{
					OFFSET 0 0 0
					CHANNELS 3 Zrotation Yrotation Xrotation
					JOINT Neck1
					{
						OFFSET -0.00021 1.49948 0.16345
						CHANNELS 3 Zrotation Yrotation Xrotation
						JOINT Head
						{
							OFFSET 0.06080 1.50567 -0.26702
							CHANNELS 3 Zrotation Yrotation Xrotation
							End Site
							{
								OFFSET 0.01726 1.56470 -0.11854
							}
						}
					}
				}
				JOINT LeftShoulder
				{
					OFFSET 0 0 0
					CHANNELS 3 Zrotation Yrotation Xrotation
					JOINT LeftArm
					{
						OFFSET 3.14993 0.82932 -0.22488
						CHANNELS 3 Zrotation Yrotation Xrotation
						JOINT LeftForeArm
						{
							OFFSET 5.68236 -0.00000 -0.00000
							CHANNELS 3 Zrotation Yrotation Xrotation
							JOINT LeftHand
							{
								OFFSET 3.17112 -0.00000 0.00000
								CHANNELS 3 Zrotation Yrotation Xrotation
								JOINT LeftFingerBase
								{
									OFFSET 0 0 0
									CHANNELS 3 Zrotation Yrotation Xrotation
									JOINT LeftHandIndex1
									{
										OFFSET 0.63269 -0.00000 0.00000
										CHANNELS 3 Zrotation Yrotation Xrotation
										End Site
										{
											OFFSET 0.51009 -0.00000 0.00000
										}
									}
								}
								JOINT LThumb
								{
									OFFSET 0 0 0
									CHANNELS 3 Zrotation Yrotation Xrotation
									End Site
									{
										OFFSET 0.51788 -0.00000 0.51788
									}
								}
							}
						}
					}
				}
				JOINT RightShoulder
				{
					OFFSET 0 0 0
					CHANNELS 3 Zrotation Yrotation Xrotation
					JOINT RightArm
					{
						OFFSET -3.10571 0.91279 -0.33334
						CHANNELS 3 Zrotation Yrotation Xrotation
						JOINT RightForeArm
						{
							OFFSET -5.87120 -0.00000 -0.00000
							CHANNELS 3 Zrotation Yrotation Xrotation
							JOINT RightHand
							{
								OFFSET -3.37589 -0.00000 0.00000
								CHANNELS 3 Zrotation Yrotation Xrotation
								JOINT RightFingerBase
								{
									OFFSET 0 0 0
									CHANNELS 3 Zrotation Yrotation Xrotation
									JOINT RightHandIndex1
									{
										OFFSET -0.60326 -0.00000 0.00000
										CHANNELS 3 Zrotation Yrotation Xrotation
										End Site
										{
											OFFSET -0.48636 -0.00000 0.00000
										}
									}
								}
								JOINT RThumb
								{
									OFFSET 0 0 0
									CHANNELS 3 Zrotation Yrotation Xrotation
									End Site
									{
										OFFSET -0.49379 -0.00000 0.49379
									}
								}
							}
						}
					}
				}
			}
		}
	}
}
MOTION
Frames: 6
Frame Time: 0.00877193
0.00 0.00 0.00 0 0 0 0 0 0 -21 0 0 0 0 0 0 0 0 0 0 0 0 0 0 21 0 0 0 0 0 0 0 0 0 0 0 0 0 0 0 0 0 0 0 0 0 0 -16 0 0 21 0 0 11 0 0 0 -8 0 0 0 0 0 0 0 0 0 0 0 0 0 0 0 0 0 0 0 0 8 0 0 0 0 0 0 0 0 0 0 0 0 0 0 0 0 0
0.00 0.00 0.00 178.4540 -83.3567 -167.8470 0.0000 0.0000 0.0000 -17.1072 -6.1429 -25.7818 6.8682 15.2199 48.3739 1.1958 -5.2841 -19.5955 2.6987 -10.1906 -29.5963 0.0000 0.0000 0.0000 21.1449 11.8879 -18.7686 -3.6574 -11.6900 34.6440 0.5937 13.6460 7.2064 -5.7409 -14.1724 43.9327 -0.7992 0.1427 -7.4310 2.2491 0.1150 2.0330 2.8177 -0.0290 6.2944 -0.8784 1.0269 -18.9332 -1.1688 1.8294 21.7307 -0.0201 0.5626 10.0593 0.0000 0.0000 0.0000 -86.3384 0.2842 35.7982 18.1000 -28.2850 -4.5965 -0.0000 0.0000 -16.4697 16.2528 34.9086 9.4715 -7.1250 0.0000 -0.0000 -21.6057 64.7500 -10.5563 0.0000 0.0000 0.0000 91.6503 0.6246 -2.3844 -15.1962 24.4188 -3.3066 0.0000 0.0000 17.9596 -28.5009 28.9222 -14.7134 7.1250 -0.0000 -0.0000 1.2835 2.1719 1.3316
0.00 0.00 0.00 178.3650 -82.1700 -166.3440 0.0000 0.0000 0.0000 -19.7839 -12.8635 -42.1734 1.5286 7.8061 22.1266 0.6400 1.4216 -15.6917 2.0929 -9.0570 -25.9737 0.0000 0.0000 0.0000 24.6612 6.3118 -7.7176 -1.7727 -8.3756 23.8610 0.4188 12.3283 9.6219 -5.4984 -13.9239 42.9336 0.3449 1.3154 -7.8735 1.6082 1.6130 1.6111 1.6941 0.7706 6.0664 0.3691 1.3809 -18.8085 -0.7072 1.8367 21.6313 -0.0640 0.7322 10.0060 0.0000 -0.0000 0.0000 -88.6123 4.5544 35.4790 16.9890 -26.8432 -4.0824 -0.0000 0.0000 -15.9509 13.6045 35.4507 7.9901 -7.1250 0.0000 -0.0000 -25.1243 64.5104 -12.2327 0.0000 -0.0000 0.0000 78.9302 6.5347 18.6814 -20.5613 31.3126 -5.8202 0.0000 0.0000 12.8586 -28.1415 30.3812 -15.1372 7.1250 -0.0000 -0.0000 1.7487 3.6242 1.8566
0.00 0.00 0.00 179.1610 -73.6485 -166.4940 0.0000 0.0000 0.0000 -21.4035 -11.9124 -35.4574 3.0745 10.8147 31.6574 0.5182 4.2935 -15.8484 0.0814 -1.8409 -5.0662 0.0000 0.0000 0.0000 18.8213 6.3506 -7.7906 -6.2476 -14.6641 45.9675 -1.4997 -7.7157 21.9130 -0.7696 -5.6018 15.6334 -4.0185 0.5202 -11.0684 -0.1971 1.1913 -0.0626 2.2489 0.4556 6.0742 1.4428 4.2277 -19.2123 -2.7517 5.9796 20.1417 -0.3739 2.5115 9.6827 0.0000 0.0000 0.0000 -85.6902 0.8603 30.4933 17.6896 -27.7579 -4.4037 -0.0000 0.0000 -16.2594 15.1128 36.1190 9.0451 -7.1250 0.0000 -0.0000 -24.2116 65.5223 -12.3275 0.0000 0.0000 0.0000 85.2749 -3.6485 12.7160 -14.9410 24.0638 -3.2018 0.0000 0.0000 21.2002 -24.6784 31.9252 -13.6573 7.1250 -0.0000 -0.0000 3.9761 4.3839 4.2784
0.00 0.00 0.00 180.4540 -71.6116 -167.2530 0.0000 0.0000 0.0000 -21.8522 -10.7193 -34.3374 3.1874 10.9925 32.2545 0.7495 3.5630 -18.0260 0.1066 -2.1049 -5.7956 0.0000 0.0000 0.0000 16.9595 8.8086 -15.4465 -8.9168 -16.7539 55.8019 -0.1853 -2.5464 7.6492 -0.2238 -3.0453 8.4048 -3.6644 0.3368 -11.4474 0.1355 0.9009 0.0315 2.3602 0.3112 6.4067 1.9119 5.0997 -19.1207 -3.8208 7.2818 19.3930 -0.6418 3.0429 9.4978 -0.0000 0.0000 0.0000 -84.9676 -0.6282 33.0009 20.0862 -30.7460 -5.5753 -0.0000 0.0000 -17.3726 15.2760 34.9488 8.8921 -7.1250 0.0000 -0.0000 -22.7399 64.5185 -11.0151 -0.0000 0.0000 0.0000 84.8054 -3.3681 14.5967 -15.9878 25.5041 -3.6407 0.0000 0.0000 20.1104 -21.8107 31.8384 -11.9207 7.1250 -0.0000 -0.0000 5.5780 3.6535 5.9496
0.00 0.00 0.00 181.0400 -72.1043 -169.0390 0.0000 0.0000 0.0000 -22.8100 -10.6238 -30.2615 3.1614 10.9519 32.1178 1.0010 2.5222 -19.9674 0.0913 -1.9492 -5.3653 0.0000 0.0000 0.0000 15.6118 9.4014 -21.5937 -9.6625 -17.2157 58.3544 -0.2887 1.2266 -9.7927 -1.3632 -7.3899 20.8758 -3.2517 -0.4595 -10.2879 0.8008 -0.2755 0.5537 2.6325 -0.2637 6.3850 2.2758 5.6988 -18.5097 -4.5629 8.1847 19.7545 -0.8405 3.3939 9.5949 -0.0000 0.0000 0.0000 -84.3462 -4.0087 35.5649 20.6886 -31.4630 -5.8866 -0.0000 0.0000 -17.5575 15.7937 34.3433 9.0663 -7.1250 0.0000 -0.0000 -21.5420 64.1085 -10.2031 -0.0000 0.0000 0.0000 84.2371 -3.4333 16.6259 -18.6452 28.9754 -4.8578 0.0000 0.0000 15.6394 -22.5306 30.2064 -11.7891 7.1250 -0.0000 -0.0000 4.9318 2.1361 5.1310
